<mxfile host="app.diagrams.net" modified="2021-05-30T10:07:49.675Z" agent="5.0 (Windows NT 10.0; Win64; x64) AppleWebKit/537.36 (KHTML, like Gecko) Chrome/90.0.4430.212 Safari/537.36" etag="u2NuylxTgjmCH4YMQ-n9" version="14.6.11" type="github">
  <diagram id="8e9Vkvu-dXk5pZn2jXKw" name="Page-1">
    <mxGraphModel dx="1038" dy="580" grid="1" gridSize="10" guides="1" tooltips="1" connect="1" arrows="1" fold="1" page="1" pageScale="1" pageWidth="827" pageHeight="1169" math="0" shadow="0">
      <root>
        <mxCell id="0" />
        <mxCell id="1" parent="0" />
        <mxCell id="BUj03gcSkIKs5ueQRQI9-1" value="&lt;table border=&quot;1&quot; width=&quot;100%&quot; cellpadding=&quot;4&quot; style=&quot;width: 100% ; height: 100% ; border-collapse: collapse&quot;&gt;&lt;tbody&gt;&lt;tr style=&quot;background-color: #a7c942 ; color: #ffffff ; border: 1px solid #98bf21&quot;&gt;&lt;th align=&quot;left&quot;&gt;ID&lt;/th&gt;&lt;th align=&quot;left&quot;&gt;Naziv&lt;/th&gt;&lt;th align=&quot;left&quot;&gt;Cijena&lt;/th&gt;&lt;/tr&gt;&lt;tr style=&quot;border: 1px solid #98bf21&quot;&gt;&lt;td&gt;1&lt;/td&gt;&lt;td&gt;Pizza mjesana&lt;/td&gt;&lt;td&gt;55&lt;/td&gt;&lt;/tr&gt;&lt;tr style=&quot;background-color: #eaf2d3 ; border: 1px solid #98bf21&quot;&gt;&lt;td&gt;2&lt;/td&gt;&lt;td&gt;Pizza margarita&lt;/td&gt;&lt;td&gt;47&lt;/td&gt;&lt;/tr&gt;&lt;tr style=&quot;border: 1px solid #98bf21&quot;&gt;&lt;td&gt;3&lt;/td&gt;&lt;td&gt;Kolac&lt;/td&gt;&lt;td&gt;34&lt;/td&gt;&lt;/tr&gt;&lt;tr style=&quot;background-color: #eaf2d3 ; border: 1px solid #98bf21&quot;&gt;&lt;td&gt;4&lt;/td&gt;&lt;td&gt;Palacinke&lt;/td&gt;&lt;td&gt;29&lt;/td&gt;&lt;/tr&gt;&lt;/tbody&gt;&lt;/table&gt;" style="text;html=1;strokeColor=#c0c0c0;fillColor=#ffffff;overflow=fill;rounded=0;" vertex="1" parent="1">
          <mxGeometry x="40" y="30" width="280" height="160" as="geometry" />
        </mxCell>
        <mxCell id="BUj03gcSkIKs5ueQRQI9-8" value="&lt;table border=&quot;1&quot; width=&quot;100%&quot; height=&quot;100%&quot; cellpadding=&quot;4&quot; style=&quot;width:100%;height:100%;border-collapse:collapse;&quot;&gt;&lt;tr style=&quot;background-color:#A7C942;color:#ffffff;border:1px solid #98bf21;&quot;&gt;&lt;th align=&quot;left&quot;&gt;Title 1&lt;/th&gt;&lt;th align=&quot;left&quot;&gt;Title 2&lt;/th&gt;&lt;th align=&quot;left&quot;&gt;Title 3&lt;/th&gt;&lt;/tr&gt;&lt;tr style=&quot;border:1px solid #98bf21;&quot;&gt;&lt;td&gt;Value 1&lt;/td&gt;&lt;td&gt;Value 2&lt;/td&gt;&lt;td&gt;Value 3&lt;/td&gt;&lt;/tr&gt;&lt;tr style=&quot;background-color:#EAF2D3;border:1px solid #98bf21;&quot;&gt;&lt;td&gt;Value 4&lt;/td&gt;&lt;td&gt;Value 5&lt;/td&gt;&lt;td&gt;Value 6&lt;/td&gt;&lt;/tr&gt;&lt;tr style=&quot;border:1px solid #98bf21;&quot;&gt;&lt;td&gt;Value 7&lt;/td&gt;&lt;td&gt;Value 8&lt;/td&gt;&lt;td&gt;Value 9&lt;/td&gt;&lt;/tr&gt;&lt;tr style=&quot;background-color:#EAF2D3;border:1px solid #98bf21;&quot;&gt;&lt;td&gt;Value 10&lt;/td&gt;&lt;td&gt;Value 11&lt;/td&gt;&lt;td&gt;Value 12&lt;/td&gt;&lt;/tr&gt;&lt;/table&gt;" style="text;html=1;strokeColor=#c0c0c0;fillColor=#ffffff;overflow=fill;rounded=0;" vertex="1" parent="1">
          <mxGeometry x="40" y="230" width="280" height="160" as="geometry" />
        </mxCell>
        <mxCell id="BUj03gcSkIKs5ueQRQI9-9" value="Jela" style="text;html=1;align=center;verticalAlign=middle;resizable=0;points=[];autosize=1;strokeColor=none;" vertex="1" parent="1">
          <mxGeometry x="40" y="10" width="40" height="20" as="geometry" />
        </mxCell>
        <mxCell id="BUj03gcSkIKs5ueQRQI9-10" value="Racun" style="text;html=1;align=center;verticalAlign=middle;resizable=0;points=[];autosize=1;strokeColor=none;" vertex="1" parent="1">
          <mxGeometry x="35" y="210" width="50" height="20" as="geometry" />
        </mxCell>
        <mxCell id="BUj03gcSkIKs5ueQRQI9-11" value="&lt;table border=&quot;1&quot; width=&quot;100%&quot; height=&quot;100%&quot; cellpadding=&quot;4&quot; style=&quot;width:100%;height:100%;border-collapse:collapse;&quot;&gt;&lt;tr style=&quot;background-color:#A7C942;color:#ffffff;border:1px solid #98bf21;&quot;&gt;&lt;th align=&quot;left&quot;&gt;Title 1&lt;/th&gt;&lt;th align=&quot;left&quot;&gt;Title 2&lt;/th&gt;&lt;th align=&quot;left&quot;&gt;Title 3&lt;/th&gt;&lt;/tr&gt;&lt;tr style=&quot;border:1px solid #98bf21;&quot;&gt;&lt;td&gt;Value 1&lt;/td&gt;&lt;td&gt;Value 2&lt;/td&gt;&lt;td&gt;Value 3&lt;/td&gt;&lt;/tr&gt;&lt;tr style=&quot;background-color:#EAF2D3;border:1px solid #98bf21;&quot;&gt;&lt;td&gt;Value 4&lt;/td&gt;&lt;td&gt;Value 5&lt;/td&gt;&lt;td&gt;Value 6&lt;/td&gt;&lt;/tr&gt;&lt;tr style=&quot;border:1px solid #98bf21;&quot;&gt;&lt;td&gt;Value 7&lt;/td&gt;&lt;td&gt;Value 8&lt;/td&gt;&lt;td&gt;Value 9&lt;/td&gt;&lt;/tr&gt;&lt;tr style=&quot;background-color:#EAF2D3;border:1px solid #98bf21;&quot;&gt;&lt;td&gt;Value 10&lt;/td&gt;&lt;td&gt;Value 11&lt;/td&gt;&lt;td&gt;Value 12&lt;/td&gt;&lt;/tr&gt;&lt;/table&gt;" style="text;html=1;strokeColor=#c0c0c0;fillColor=#ffffff;overflow=fill;rounded=0;" vertex="1" parent="1">
          <mxGeometry x="40" y="630" width="280" height="160" as="geometry" />
        </mxCell>
        <mxCell id="BUj03gcSkIKs5ueQRQI9-13" value="Namirnice" style="text;html=1;align=center;verticalAlign=middle;resizable=0;points=[];autosize=1;strokeColor=none;" vertex="1" parent="1">
          <mxGeometry x="35" y="610" width="70" height="20" as="geometry" />
        </mxCell>
        <mxCell id="BUj03gcSkIKs5ueQRQI9-14" value="&lt;table border=&quot;1&quot; width=&quot;100%&quot; height=&quot;100%&quot; cellpadding=&quot;4&quot; style=&quot;width:100%;height:100%;border-collapse:collapse;&quot;&gt;&lt;tr style=&quot;background-color:#A7C942;color:#ffffff;border:1px solid #98bf21;&quot;&gt;&lt;th align=&quot;left&quot;&gt;Title 1&lt;/th&gt;&lt;th align=&quot;left&quot;&gt;Title 2&lt;/th&gt;&lt;th align=&quot;left&quot;&gt;Title 3&lt;/th&gt;&lt;/tr&gt;&lt;tr style=&quot;border:1px solid #98bf21;&quot;&gt;&lt;td&gt;Value 1&lt;/td&gt;&lt;td&gt;Value 2&lt;/td&gt;&lt;td&gt;Value 3&lt;/td&gt;&lt;/tr&gt;&lt;tr style=&quot;background-color:#EAF2D3;border:1px solid #98bf21;&quot;&gt;&lt;td&gt;Value 4&lt;/td&gt;&lt;td&gt;Value 5&lt;/td&gt;&lt;td&gt;Value 6&lt;/td&gt;&lt;/tr&gt;&lt;tr style=&quot;border:1px solid #98bf21;&quot;&gt;&lt;td&gt;Value 7&lt;/td&gt;&lt;td&gt;Value 8&lt;/td&gt;&lt;td&gt;Value 9&lt;/td&gt;&lt;/tr&gt;&lt;tr style=&quot;background-color:#EAF2D3;border:1px solid #98bf21;&quot;&gt;&lt;td&gt;Value 10&lt;/td&gt;&lt;td&gt;Value 11&lt;/td&gt;&lt;td&gt;Value 12&lt;/td&gt;&lt;/tr&gt;&lt;/table&gt;" style="text;html=1;strokeColor=#c0c0c0;fillColor=#ffffff;overflow=fill;rounded=0;" vertex="1" parent="1">
          <mxGeometry x="40" y="819" width="280" height="160" as="geometry" />
        </mxCell>
        <mxCell id="BUj03gcSkIKs5ueQRQI9-15" value="Dnevni_meni" style="text;html=1;align=center;verticalAlign=middle;resizable=0;points=[];autosize=1;strokeColor=none;" vertex="1" parent="1">
          <mxGeometry x="35" y="799" width="90" height="20" as="geometry" />
        </mxCell>
        <mxCell id="BUj03gcSkIKs5ueQRQI9-16" value="&lt;table border=&quot;1&quot; width=&quot;100%&quot; cellpadding=&quot;4&quot; style=&quot;width: 100% ; height: 100% ; border-collapse: collapse&quot;&gt;&lt;tbody&gt;&lt;tr style=&quot;background-color: #a7c942 ; color: #ffffff ; border: 1px solid #98bf21&quot;&gt;&lt;th align=&quot;left&quot;&gt;ID&lt;/th&gt;&lt;th align=&quot;left&quot;&gt;Naziv&lt;/th&gt;&lt;th align=&quot;left&quot;&gt;Cijena&lt;/th&gt;&lt;/tr&gt;&lt;tr style=&quot;border: 1px solid #98bf21&quot;&gt;&lt;td&gt;1&lt;/td&gt;&lt;td&gt;Pizza mjesana&lt;/td&gt;&lt;td&gt;55&lt;/td&gt;&lt;/tr&gt;&lt;tr style=&quot;background-color: #eaf2d3 ; border: 1px solid #98bf21&quot;&gt;&lt;td&gt;2&lt;/td&gt;&lt;td&gt;Pizza margarita&lt;/td&gt;&lt;td&gt;47&lt;/td&gt;&lt;/tr&gt;&lt;tr style=&quot;border: 1px solid #98bf21&quot;&gt;&lt;td&gt;3&lt;/td&gt;&lt;td&gt;Kolac&lt;/td&gt;&lt;td&gt;34&lt;/td&gt;&lt;/tr&gt;&lt;tr style=&quot;background-color: #eaf2d3 ; border: 1px solid #98bf21&quot;&gt;&lt;td&gt;4&lt;/td&gt;&lt;td&gt;Palacinke&lt;/td&gt;&lt;td&gt;29&lt;/td&gt;&lt;/tr&gt;&lt;/tbody&gt;&lt;/table&gt;" style="text;html=1;strokeColor=#c0c0c0;fillColor=#ffffff;overflow=fill;rounded=0;" vertex="1" parent="1">
          <mxGeometry x="40" y="430" width="280" height="160" as="geometry" />
        </mxCell>
        <mxCell id="BUj03gcSkIKs5ueQRQI9-17" value="&lt;table border=&quot;1&quot; width=&quot;100%&quot; height=&quot;100%&quot; cellpadding=&quot;4&quot; style=&quot;width:100%;height:100%;border-collapse:collapse;&quot;&gt;&lt;tr style=&quot;background-color:#A7C942;color:#ffffff;border:1px solid #98bf21;&quot;&gt;&lt;th align=&quot;left&quot;&gt;Title 1&lt;/th&gt;&lt;th align=&quot;left&quot;&gt;Title 2&lt;/th&gt;&lt;th align=&quot;left&quot;&gt;Title 3&lt;/th&gt;&lt;/tr&gt;&lt;tr style=&quot;border:1px solid #98bf21;&quot;&gt;&lt;td&gt;Value 1&lt;/td&gt;&lt;td&gt;Value 2&lt;/td&gt;&lt;td&gt;Value 3&lt;/td&gt;&lt;/tr&gt;&lt;tr style=&quot;background-color:#EAF2D3;border:1px solid #98bf21;&quot;&gt;&lt;td&gt;Value 4&lt;/td&gt;&lt;td&gt;Value 5&lt;/td&gt;&lt;td&gt;Value 6&lt;/td&gt;&lt;/tr&gt;&lt;tr style=&quot;border:1px solid #98bf21;&quot;&gt;&lt;td&gt;Value 7&lt;/td&gt;&lt;td&gt;Value 8&lt;/td&gt;&lt;td&gt;Value 9&lt;/td&gt;&lt;/tr&gt;&lt;tr style=&quot;background-color:#EAF2D3;border:1px solid #98bf21;&quot;&gt;&lt;td&gt;Value 10&lt;/td&gt;&lt;td&gt;Value 11&lt;/td&gt;&lt;td&gt;Value 12&lt;/td&gt;&lt;/tr&gt;&lt;/table&gt;" style="text;html=1;strokeColor=#c0c0c0;fillColor=#ffffff;overflow=fill;rounded=0;" vertex="1" parent="1">
          <mxGeometry x="362.5" y="630" width="280" height="160" as="geometry" />
        </mxCell>
        <mxCell id="BUj03gcSkIKs5ueQRQI9-18" value="Meni" style="text;html=1;align=center;verticalAlign=middle;resizable=0;points=[];autosize=1;strokeColor=none;" vertex="1" parent="1">
          <mxGeometry x="40" y="410" width="40" height="20" as="geometry" />
        </mxCell>
        <mxCell id="BUj03gcSkIKs5ueQRQI9-19" value="JeloNamirnice" style="text;html=1;align=center;verticalAlign=middle;resizable=0;points=[];autosize=1;strokeColor=none;" vertex="1" parent="1">
          <mxGeometry x="357.5" y="610" width="90" height="20" as="geometry" />
        </mxCell>
        <mxCell id="BUj03gcSkIKs5ueQRQI9-20" value="&lt;table border=&quot;1&quot; width=&quot;100%&quot; height=&quot;100%&quot; cellpadding=&quot;4&quot; style=&quot;width:100%;height:100%;border-collapse:collapse;&quot;&gt;&lt;tr style=&quot;background-color:#A7C942;color:#ffffff;border:1px solid #98bf21;&quot;&gt;&lt;th align=&quot;left&quot;&gt;Title 1&lt;/th&gt;&lt;th align=&quot;left&quot;&gt;Title 2&lt;/th&gt;&lt;th align=&quot;left&quot;&gt;Title 3&lt;/th&gt;&lt;/tr&gt;&lt;tr style=&quot;border:1px solid #98bf21;&quot;&gt;&lt;td&gt;Value 1&lt;/td&gt;&lt;td&gt;Value 2&lt;/td&gt;&lt;td&gt;Value 3&lt;/td&gt;&lt;/tr&gt;&lt;tr style=&quot;background-color:#EAF2D3;border:1px solid #98bf21;&quot;&gt;&lt;td&gt;Value 4&lt;/td&gt;&lt;td&gt;Value 5&lt;/td&gt;&lt;td&gt;Value 6&lt;/td&gt;&lt;/tr&gt;&lt;tr style=&quot;border:1px solid #98bf21;&quot;&gt;&lt;td&gt;Value 7&lt;/td&gt;&lt;td&gt;Value 8&lt;/td&gt;&lt;td&gt;Value 9&lt;/td&gt;&lt;/tr&gt;&lt;tr style=&quot;background-color:#EAF2D3;border:1px solid #98bf21;&quot;&gt;&lt;td&gt;Value 10&lt;/td&gt;&lt;td&gt;Value 11&lt;/td&gt;&lt;td&gt;Value 12&lt;/td&gt;&lt;/tr&gt;&lt;/table&gt;" style="text;html=1;strokeColor=#c0c0c0;fillColor=#ffffff;overflow=fill;rounded=0;" vertex="1" parent="1">
          <mxGeometry x="360" y="30" width="280" height="160" as="geometry" />
        </mxCell>
        <mxCell id="BUj03gcSkIKs5ueQRQI9-21" value="JeloRacun" style="text;html=1;align=center;verticalAlign=middle;resizable=0;points=[];autosize=1;strokeColor=none;" vertex="1" parent="1">
          <mxGeometry x="355" y="10" width="70" height="20" as="geometry" />
        </mxCell>
        <mxCell id="BUj03gcSkIKs5ueQRQI9-22" value="&lt;table border=&quot;1&quot; width=&quot;100%&quot; height=&quot;100%&quot; cellpadding=&quot;4&quot; style=&quot;width:100%;height:100%;border-collapse:collapse;&quot;&gt;&lt;tr style=&quot;background-color:#A7C942;color:#ffffff;border:1px solid #98bf21;&quot;&gt;&lt;th align=&quot;left&quot;&gt;Title 1&lt;/th&gt;&lt;th align=&quot;left&quot;&gt;Title 2&lt;/th&gt;&lt;th align=&quot;left&quot;&gt;Title 3&lt;/th&gt;&lt;/tr&gt;&lt;tr style=&quot;border:1px solid #98bf21;&quot;&gt;&lt;td&gt;Value 1&lt;/td&gt;&lt;td&gt;Value 2&lt;/td&gt;&lt;td&gt;Value 3&lt;/td&gt;&lt;/tr&gt;&lt;tr style=&quot;background-color:#EAF2D3;border:1px solid #98bf21;&quot;&gt;&lt;td&gt;Value 4&lt;/td&gt;&lt;td&gt;Value 5&lt;/td&gt;&lt;td&gt;Value 6&lt;/td&gt;&lt;/tr&gt;&lt;tr style=&quot;border:1px solid #98bf21;&quot;&gt;&lt;td&gt;Value 7&lt;/td&gt;&lt;td&gt;Value 8&lt;/td&gt;&lt;td&gt;Value 9&lt;/td&gt;&lt;/tr&gt;&lt;tr style=&quot;background-color:#EAF2D3;border:1px solid #98bf21;&quot;&gt;&lt;td&gt;Value 10&lt;/td&gt;&lt;td&gt;Value 11&lt;/td&gt;&lt;td&gt;Value 12&lt;/td&gt;&lt;/tr&gt;&lt;/table&gt;" style="text;html=1;strokeColor=#c0c0c0;fillColor=#ffffff;overflow=fill;rounded=0;" vertex="1" parent="1">
          <mxGeometry x="360" y="230" width="280" height="160" as="geometry" />
        </mxCell>
        <mxCell id="BUj03gcSkIKs5ueQRQI9-23" value="JeloDnevniMeni" style="text;html=1;align=center;verticalAlign=middle;resizable=0;points=[];autosize=1;strokeColor=none;" vertex="1" parent="1">
          <mxGeometry x="350" y="210" width="100" height="20" as="geometry" />
        </mxCell>
        <mxCell id="BUj03gcSkIKs5ueQRQI9-24" value="&lt;table border=&quot;1&quot; width=&quot;100%&quot; height=&quot;100%&quot; cellpadding=&quot;4&quot; style=&quot;width:100%;height:100%;border-collapse:collapse;&quot;&gt;&lt;tr style=&quot;background-color:#A7C942;color:#ffffff;border:1px solid #98bf21;&quot;&gt;&lt;th align=&quot;left&quot;&gt;Title 1&lt;/th&gt;&lt;th align=&quot;left&quot;&gt;Title 2&lt;/th&gt;&lt;th align=&quot;left&quot;&gt;Title 3&lt;/th&gt;&lt;/tr&gt;&lt;tr style=&quot;border:1px solid #98bf21;&quot;&gt;&lt;td&gt;Value 1&lt;/td&gt;&lt;td&gt;Value 2&lt;/td&gt;&lt;td&gt;Value 3&lt;/td&gt;&lt;/tr&gt;&lt;tr style=&quot;background-color:#EAF2D3;border:1px solid #98bf21;&quot;&gt;&lt;td&gt;Value 4&lt;/td&gt;&lt;td&gt;Value 5&lt;/td&gt;&lt;td&gt;Value 6&lt;/td&gt;&lt;/tr&gt;&lt;tr style=&quot;border:1px solid #98bf21;&quot;&gt;&lt;td&gt;Value 7&lt;/td&gt;&lt;td&gt;Value 8&lt;/td&gt;&lt;td&gt;Value 9&lt;/td&gt;&lt;/tr&gt;&lt;tr style=&quot;background-color:#EAF2D3;border:1px solid #98bf21;&quot;&gt;&lt;td&gt;Value 10&lt;/td&gt;&lt;td&gt;Value 11&lt;/td&gt;&lt;td&gt;Value 12&lt;/td&gt;&lt;/tr&gt;&lt;/table&gt;" style="text;html=1;strokeColor=#c0c0c0;fillColor=#ffffff;overflow=fill;rounded=0;" vertex="1" parent="1">
          <mxGeometry x="360" y="430" width="280" height="160" as="geometry" />
        </mxCell>
        <mxCell id="BUj03gcSkIKs5ueQRQI9-25" value="JeloMeni" style="text;html=1;align=center;verticalAlign=middle;resizable=0;points=[];autosize=1;strokeColor=none;" vertex="1" parent="1">
          <mxGeometry x="360" y="410" width="60" height="20" as="geometry" />
        </mxCell>
      </root>
    </mxGraphModel>
  </diagram>
</mxfile>
